<?xml version="1.0" encoding="UTF-8" standalone="no"?>
<!-- Generator: Adobe Illustrator 18.0.0, SVG Export Plug-In . SVG Version: 6.00 Build 0)  -->

<svg xmlns:dc="http://purl.org/dc/elements/1.1/" xmlns:cc="http://creativecommons.org/ns#" xmlns:rdf="http://www.w3.org/1999/02/22-rdf-syntax-ns#" xmlns:svg="http://www.w3.org/2000/svg" xmlns="http://www.w3.org/2000/svg" xmlns:sodipodi="http://sodipodi.sourceforge.net/DTD/sodipodi-0.dtd" xmlns:inkscape="http://www.inkscape.org/namespaces/inkscape" version="1.1" id="Capa_1" x="0px" y="0px" viewBox="0 0 294.5 294.5" style="enable-background:new 0 0 294.5 294.5;" xml:space="preserve" inkscape:version="0.91 r13725" sodipodi:docname="donate.svg"><metadata id="metadata45"><rdf:RDF><cc:Work rdf:about=""><dc:format>image/svg+xml</dc:format><dc:type rdf:resource="http://purl.org/dc/dcmitype/StillImage" /></cc:Work></rdf:RDF></metadata><defs id="defs43" /><sodipodi:namedview pagecolor="#ffffff" bordercolor="#666666" borderopacity="1" objecttolerance="10" gridtolerance="10" guidetolerance="10" inkscape:pageopacity="0" inkscape:pageshadow="2" inkscape:window-width="1366" inkscape:window-height="747" id="namedview41" showgrid="false" inkscape:zoom="0.80135823" inkscape:cx="-4.3675847" inkscape:cy="147.25" inkscape:window-x="0" inkscape:window-y="21" inkscape:window-maximized="1" inkscape:current-layer="g3" /><g id="g3"><path d="M147.251,80c22.056,0,39.999-17.944,39.999-40S169.307,0,147.251,0c-22.057,0-40.001,17.944-40.001,40   S125.194,80,147.251,80z M147.251,20c11.027,0,19.999,8.972,19.999,20s-8.972,20-19.999,20c-11.028,0-20.001-8.972-20.001-20   S136.223,20,147.251,20z" id="path5" style="fill:white;fill-opacity:1" /><path d="M256,109.167h-67.889c1.335-1.7,2.139-3.838,2.139-6.167c0-5.522-4.477-10-10-10h-66c-5.522,0-10,4.478-10,10   c0,2.329,0.804,4.467,2.139,6.167H38.5c-13.785,0-25,11.215-25,25V284.5c0,5.522,4.478,10,10,10H271c5.522,0,10-4.478,10-10   V134.167C281,120.382,269.785,109.167,256,109.167z M261,274.5H33.5V134.167c0-2.71,2.29-5,5-5H256c2.71,0,5,2.29,5,5V274.5z" id="path7" style="fill:white;fill-opacity:1" /><path d="M142.3,184.996h23.936c5.523,0,10-4.477,10-10c0-5.522-4.477-10-10-10h-8.986v-7.533c0-5.523-4.478-10-10-10   c-5.523,0-10,4.477-10,10v8.088c-10.7,2.352-18.984,11.953-18.984,23.055c0,12.799,11.007,23.611,24.035,23.611h9.898   c1.962,0,4.037,1.856,4.037,3.611c0,1.753-2.075,3.607-4.037,3.607h-23.934c-5.522,0-10,4.478-10,10c0,5.522,4.478,10,10,10h8.984   v6.77c0,5.522,4.477,10,10,10c5.522,0,10-4.478,10-10v-7.323c10.701-2.352,18.986-11.953,18.986-23.054   c0-12.799-11.008-23.611-24.037-23.611H142.3c-1.961,0-4.035-1.856-4.035-3.611C138.265,186.852,140.339,184.996,142.3,184.996z" id="path9" style="fill:white;fill-opacity:1" /></g><g id="g11" /><g id="g13" /><g id="g15" /><g id="g17" /><g id="g19" /><g id="g21" /><g id="g23" /><g id="g25" /><g id="g27" /><g id="g29" /><g id="g31" /><g id="g33" /><g id="g35" /><g id="g37" /><g id="g39" /></svg>