<?xml version="1.0" encoding="UTF-8" standalone="no"?>
<!-- Created with Inkscape (http://www.inkscape.org/) -->

<svg
   width="77.924004mm"
   height="75.14193mm"
   viewBox="0 0 77.924003 75.141929"
   version="1.1"
   id="svg398"
   inkscape:version="1.2.1 (9c6d41e410, 2022-07-14)"
   sodipodi:docname="partner-primary.svg"
   xmlns:inkscape="http://www.inkscape.org/namespaces/inkscape"
   xmlns:sodipodi="http://sodipodi.sourceforge.net/DTD/sodipodi-0.dtd"
   xmlns="http://www.w3.org/2000/svg"
   xmlns:svg="http://www.w3.org/2000/svg">
  <sodipodi:namedview
     id="namedview400"
     pagecolor="#ffffff"
     bordercolor="#000000"
     borderopacity="0.25"
     inkscape:showpageshadow="2"
     inkscape:pageopacity="0.0"
     inkscape:pagecheckerboard="0"
     inkscape:deskcolor="#d1d1d1"
     inkscape:document-units="mm"
     showgrid="false"
     inkscape:zoom="0.46057099"
     inkscape:cx="256.20372"
     inkscape:cy="-106.38968"
     inkscape:window-width="1366"
     inkscape:window-height="697"
     inkscape:window-x="-8"
     inkscape:window-y="-8"
     inkscape:window-maximized="1"
     inkscape:current-layer="layer1" />
  <defs
     id="defs395" />
  <g
     inkscape:label="Layer 1"
     inkscape:groupmode="layer"
     id="layer1"
     transform="translate(6.0367763,-175.90437)">
    <g
       id="g222"
       transform="matrix(0.26458333,0,0,0.26458333,-6.0367277,174.51319)"
       style="fill:#000080">
      <g
         id="g3"
         style="fill:#000080;fill-opacity:1">
        <path
           d="m 291.587,189.687 -38.895,-38.894 c -7.717,-7.717 -21.766,-13.535 -32.677,-13.535 h -102 c -13.785,0 -25,11.215 -25,25 v 3 c 0,13.785 11.215,25 25,25 h 26.857 l -5.322,5.322 c -3.634,3.635 -11.881,6.378 -16.971,5.657 l -85.8,-12.257 c -11.29,-1.611 -24.866,2.239 -31.584,8.957 -4.174,4.174 -5.958,9.734 -4.894,15.254 1.248,6.48 6.191,12.009 13.564,15.168 l 87.925,37.682 c 9.628,4.127 24.547,5.321 34.704,2.781 l 36.896,-9.225 c 8.631,-2.158 21.762,-6.676 29.894,-10.286 l 9.745,-4.326 c 3.601,-1.599 9.748,-0.316 12.408,2.589 l 35.204,38.439 c 1.973,2.154 4.671,3.246 7.378,3.246 2.412,0 4.832,-0.868 6.751,-2.625 4.073,-3.73 4.351,-10.057 0.621,-14.129 l -35.205,-38.438 c -8.403,-9.176 -23.897,-12.408 -35.272,-7.36 l -9.745,4.326 c -7.002,3.108 -19.197,7.305 -26.63,9.163 l -36.896,9.225 c -5.906,1.477 -16.378,0.636 -21.974,-1.762 L 22.467,210.287 c 3.062,-1.205 7.559,-2.066 11.486,-1.507 l 85.801,12.258 c 11.292,1.619 25.879,-3.252 33.94,-11.314 l 11.787,-11.787 c 8.213,-8.213 6.409,-15.596 5.252,-18.389 -1.157,-2.793 -5.102,-9.289 -16.717,-9.289 h -36 c -2.71,0 -5,-2.29 -5,-5 v -3 c 0,-2.71 2.29,-5 5,-5 h 102 c 5.58,0 14.589,3.731 18.535,7.678 l 38.893,38.894 c 3.906,3.904 10.236,3.904 14.143,0 3.905,-3.907 3.905,-10.239 0,-14.144 z"
           id="path5"
           style="fill:#000080;fill-opacity:1" />
        <path
           d="m 20.517,25.258 h 6.5 v 56 c 0,5.522 4.477,10 10,10 5.522,0 10,-4.478 10,-10 v -56 h 13 v 89 c 0,5.522 4.477,10 10,10 h 132 c 5.522,0 10,-4.478 10,-10 v -89 h 39.5 c 5.522,0 10,-4.477 10,-10 0,-5.523 -4.478,-10 -10,-10 h -231 c -5.523,0 -10,4.478 -10,10 0,5.522 4.477,10 10,10 z m 171.5,79 h -112 v -79 h 112 z"
           id="path7"
           style="fill:#000080;fill-opacity:1" />
      </g>
      <g
         id="g9"
         style="fill:#000080" />
      <g
         id="g11"
         style="fill:#000080" />
      <g
         id="g13"
         style="fill:#000080" />
      <g
         id="g15"
         style="fill:#000080" />
      <g
         id="g17"
         style="fill:#000080" />
      <g
         id="g19"
         style="fill:#000080" />
      <g
         id="g21"
         style="fill:#000080" />
      <g
         id="g23"
         style="fill:#000080" />
      <g
         id="g25"
         style="fill:#000080" />
      <g
         id="g27"
         style="fill:#000080" />
      <g
         id="g29"
         style="fill:#000080" />
      <g
         id="g31"
         style="fill:#000080" />
      <g
         id="g33"
         style="fill:#000080" />
      <g
         id="g35"
         style="fill:#000080" />
      <g
         id="g37"
         style="fill:#000080" />
    </g>
  </g>
</svg>
