<?xml version="1.0" encoding="UTF-8" standalone="no"?>
<!-- Created with Inkscape (http://www.inkscape.org/) -->

<svg
   width="144.26447mm"
   height="124.15238mm"
   viewBox="0 0 144.26446 124.15238"
   version="1.1"
   id="svg1573"
   sodipodi:docname="animals-color.svg"
   inkscape:version="1.1 (c68e22c387, 2021-05-23)"
   xmlns:inkscape="http://www.inkscape.org/namespaces/inkscape"
   xmlns:sodipodi="http://sodipodi.sourceforge.net/DTD/sodipodi-0.dtd"
   xmlns="http://www.w3.org/2000/svg"
   xmlns:svg="http://www.w3.org/2000/svg">
  <sodipodi:namedview
     id="namedview1575"
     pagecolor="#ffffff"
     bordercolor="#999999"
     borderopacity="1"
     inkscape:pageshadow="0"
     inkscape:pageopacity="0"
     inkscape:pagecheckerboard="0"
     inkscape:document-units="mm"
     showgrid="false"
     inkscape:zoom="0.49709596"
     inkscape:cx="-130.75946"
     inkscape:cy="139.81204"
     inkscape:window-width="1366"
     inkscape:window-height="715"
     inkscape:window-x="-8"
     inkscape:window-y="-8"
     inkscape:window-maximized="1"
     inkscape:current-layer="layer1"
     fit-margin-top="0"
     fit-margin-left="0"
     fit-margin-right="0"
     fit-margin-bottom="0" />
  <defs
     id="defs1570" />
  <g
     inkscape:label="Layer 1"
     inkscape:groupmode="layer"
     id="layer1"
     transform="translate(-139.62084,-112.18902)">
    <path
       style="fill:#8e8b00;fill-opacity:1;stroke-width:0.282222"
       d="m 176.89863,236.0287 c -5.3223,-0.76753 -9.27377,-3.19011 -11.51578,-7.06014 -0.39339,-0.67903 -1.01126,-2.1871 -1.37306,-3.35128 -0.57396,-1.84681 -0.65396,-2.65637 -0.62754,-6.34999 0.0558,-7.80674 1.96933,-15.15288 6.028,-23.14223 8.07603,-15.89735 21.72119,-27.1142 36.02851,-29.61681 3.2446,-0.56754 9.38402,-0.56754 12.62862,0 14.30732,2.50261 27.9525,13.71945 36.02852,29.61681 4.05868,7.98935 5.97216,15.33548 6.02801,23.14222 0.0241,3.37147 -0.0754,4.57808 -0.48865,5.92667 -1.29179,4.21533 -3.83276,7.33246 -7.36021,9.02909 -3.27221,1.57387 -5.30019,1.94757 -10.60642,1.95447 -5.24518,0.007 -6.45442,-0.13928 -17.92111,-2.16516 -11.38591,-2.01162 -12.97776,-2.00173 -25.54111,0.15874 -12.7931,2.19998 -16.62013,2.53362 -21.30778,1.85761 z m 12.28046,-8.84379 c 1.47669,-0.2306 5.60419,-0.92792 9.17222,-1.54959 12.36702,-2.15474 14.08014,-2.13885 27.76812,0.25747 9.81982,1.71915 13.17248,2.09714 16.81919,1.89636 7.10971,-0.39148 9.17955,-2.66069 8.79728,-9.64466 -0.98335,-17.96574 -15.13986,-37.2256 -31.09283,-42.30172 -5.64483,-1.79615 -12.1584,-1.79534 -17.78,0.002 -9.02394,2.88546 -17.69217,10.24922 -23.74166,20.16882 -4.36909,7.16419 -6.98745,15.03641 -7.36813,22.15259 -0.41353,7.73023 1.99367,9.86537 10.7898,9.57034 2.17311,-0.0729 5.15931,-0.32121 6.63601,-0.55182 z m -34.67235,-37.85257 c -6.55697,-1.76413 -11.98184,-7.86325 -14.16553,-15.92616 -0.94665,-3.49534 -0.96242,-8.87869 -0.0347,-11.85334 0.94594,-3.03314 2.21418,-5.26744 4.00281,-7.05188 2.81809,-2.81149 6.35194,-4.16658 10.05246,-3.85471 6.05226,0.51006 11.47133,4.58183 14.71564,11.05701 3.30647,6.59925 3.54636,14.66379 0.60925,20.48218 -2.87638,5.69807 -9.30875,8.72652 -15.1799,7.1469 z m 5.20752,-8.48099 c 3.903,-1.85209 4.79649,-9.41822 1.81064,-15.33263 -2.35164,-4.6582 -6.47896,-7.3506 -9.514,-6.20634 -2.15255,0.81155 -3.64053,3.5117 -3.93185,7.13491 -0.65906,8.1968 6.37233,16.90146 11.63521,14.40406 z m 102.93345,8.52223 c -4.68676,-1.13665 -8.57401,-5.12006 -10.08814,-10.33771 -1.53466,-5.28843 -0.99359,-11.04229 1.56029,-16.59219 5.37277,-11.67577 17.48868,-15.51328 25.077,-7.94272 1.78863,1.78444 3.05687,4.01874 4.00281,7.05188 0.92769,2.97466 0.91192,8.358 -0.0347,11.85334 -2.98901,11.03642 -11.98416,18.03684 -20.51722,15.96739 z m 6.236,-9.02668 c 3.96379,-2.32294 6.96211,-8.69202 6.54338,-13.89961 -0.36313,-4.51637 -2.51116,-7.43444 -5.47262,-7.43444 -3.56727,0 -7.67588,4.32878 -9.25088,9.74663 -1.04498,3.59461 -0.36937,8.67027 1.44036,10.82101 1.58731,1.88642 4.30188,2.1951 6.73976,0.76641 z m -80.77344,-16.29278 c -2.56155,-0.37099 -4.57181,-1.20893 -6.89056,-2.87221 -7.20774,-5.17022 -11.28757,-16.60276 -9.80585,-27.47809 0.98229,-7.20971 3.61039,-12.8 7.95075,-16.91225 5.2681,-4.99124 11.63448,-5.95791 17.83359,-2.70783 8.97918,4.70761 13.95579,18.68083 11.17699,31.38244 -1.79592,8.20891 -5.98149,14.31851 -11.69576,17.07207 -1.41088,0.67987 -3.20024,1.31595 -3.97635,1.41352 -0.77611,0.0976 -1.72861,0.2182 -2.11667,0.26809 -0.38805,0.0499 -1.50232,-0.0247 -2.47614,-0.16574 z m 4.65739,-8.87014 c 1.36153,-0.55383 3.65574,-2.83759 4.78333,-4.76154 3.11014,-5.30663 3.93128,-12.49441 2.19618,-19.22392 -0.685,-2.65676 -2.59065,-6.22841 -4.20587,-7.88282 -1.79959,-1.84325 -2.90949,-2.42445 -4.99017,-2.61312 -1.3879,-0.12585 -1.87292,-0.0331 -3.18642,0.60957 -6.02894,2.94968 -9.334,14.09169 -6.95554,23.44847 1.12032,4.4073 3.96654,8.82019 6.56974,10.18597 1.81485,0.95217 3.82853,1.03474 5.78875,0.23739 z m 38.45875,8.85545 c -1.20496,-0.1644 -2.71469,-0.67698 -4.39969,-1.49379 -11.38502,-5.51895 -16.01529,-24.40093 -9.42977,-38.45406 2.82594,-6.03039 7.30928,-10.11524 12.6002,-11.48025 7.66719,-1.97806 15.88771,3.13856 19.74795,12.29154 3.76759,8.93331 3.48967,19.46686 -0.74005,28.04834 -2.77139,5.62274 -7.12132,9.57282 -11.78183,10.69883 -2.36004,0.5702 -3.92613,0.67189 -5.99681,0.38939 z m 4.93889,-8.97524 c 2.79988,-1.23371 5.73531,-5.59706 6.93169,-10.30357 2.37846,-9.35678 -0.9266,-20.49879 -6.95555,-23.44847 -1.31349,-0.64264 -1.79851,-0.73542 -3.18641,-0.60957 -2.08068,0.18867 -3.19058,0.76987 -4.99018,2.61312 -1.61845,1.65773 -3.52113,5.22717 -4.20966,7.89736 -2.36937,9.18868 0.16709,19.23055 5.90172,23.36502 1.82934,1.31889 4.21417,1.49701 6.50839,0.48611 z"
       id="path1151" />
  </g>
</svg>
