<?xml version="1.0" encoding="UTF-8" standalone="no"?>
<!-- Created with Inkscape (http://www.inkscape.org/) -->

<svg
   width="132.63086mm"
   height="132.63086mm"
   viewBox="0 0 132.63086 132.63086"
   version="1.1"
   id="svg2062"
   sodipodi:docname="humans.svg"
   inkscape:version="1.1 (c68e22c387, 2021-05-23)"
   xmlns:inkscape="http://www.inkscape.org/namespaces/inkscape"
   xmlns:sodipodi="http://sodipodi.sourceforge.net/DTD/sodipodi-0.dtd"
   xmlns="http://www.w3.org/2000/svg"
   xmlns:svg="http://www.w3.org/2000/svg">
  <sodipodi:namedview
     id="namedview2064"
     pagecolor="#505050"
     bordercolor="#eeeeee"
     borderopacity="1"
     inkscape:pageshadow="0"
     inkscape:pageopacity="0"
     inkscape:pagecheckerboard="0"
     inkscape:document-units="mm"
     showgrid="false"
     fit-margin-top="0"
     fit-margin-left="0"
     fit-margin-right="0"
     fit-margin-bottom="0"
     inkscape:zoom="0.49709596"
     inkscape:cx="128.74778"
     inkscape:cy="306.78181"
     inkscape:window-width="1366"
     inkscape:window-height="715"
     inkscape:window-x="-8"
     inkscape:window-y="-8"
     inkscape:window-maximized="1"
     inkscape:current-layer="layer1" />
  <defs
     id="defs2059" />
  <g
     inkscape:label="Layer 1"
     inkscape:groupmode="layer"
     id="layer1"
     transform="translate(-131.91441,-11.39427)">
    <path
       style="fill:#ffffff;stroke:#ffffff;stroke-width:2.5;stroke-miterlimit:4;stroke-dasharray:none;stroke-opacity:1"
       d="m 188.63654,142.59003 c -2.4298,-0.79955 -4.31925,-2.38465 -5.49012,-4.6058 l -0.72758,-1.38021 -0.0755,-16.55697 -0.0755,-16.55697 -1.48315,0.74812 c -2.14053,1.0797 -4.41112,1.05648 -6.66167,-0.0681 -1.73801,-0.86849 -2.59334,-1.78073 -3.45903,-3.68919 -0.52212,-1.151033 -0.53682,-1.671027 -0.54248,-19.185324 -0.006,-19.967614 -0.0483,-19.417407 1.75935,-23.140484 1.33664,-2.753021 4.46576,-5.885349 7.23067,-7.238087 3.45264,-1.689205 4.09692,-1.748017 19.20612,-1.753152 12.50149,-0.0043 13.66779,0.03383 15.5161,0.506544 5.61021,1.434852 9.90079,5.423482 11.76976,10.941481 l 0.73615,2.173422 v 18.25625 18.256249 l -0.74373,1.514541 c -1.85329,3.77406 -6.42101,5.31772 -10.06431,3.40123 l -1.46906,-0.77277 -0.0869,16.31704 c -0.10007,18.79452 0.0226,17.81569 -2.56223,20.43951 -1.95504,1.9845 -3.848,2.72858 -6.50505,2.55698 -2.31772,-0.14968 -4.09684,-0.95634 -5.67389,-2.57259 l -1.17597,-1.20519 -1.03555,1.12344 c -1.49623,1.62321 -3.48737,2.51966 -5.82722,2.6235 -1.04378,0.0463 -2.19544,-0.0137 -2.55925,-0.13343 z m 4.64498,-2.64859 c 1.40093,-0.63633 2.89799,-2.40938 3.26501,-3.86694 0.1969,-0.78195 0.2921,-6.32156 0.2921,-16.99723 0,-11.96505 0.0776,-15.91484 0.3175,-16.15471 0.17462,-0.17462 0.65382,-0.3175 1.06488,-0.3175 0.55881,0 0.81248,0.17124 1.00541,0.67868 0.15704,0.41304 0.26032,6.91146 0.26385,16.60261 0.005,14.87704 0.0377,15.99421 0.49152,16.9932 0.90579,1.99408 3.0089,3.29634 5.3235,3.29634 2.35583,0 4.21335,-1.14146 5.38205,-3.30729 l 0.57108,-1.05833 0.0704,-31.59569 c 0.0504,-22.607122 0.15365,-31.696038 0.36313,-31.948435 0.36425,-0.438898 1.33939,-0.458401 1.76254,-0.03525 0.23779,0.237792 0.3175,3.389651 0.3175,12.554685 0,8.09507 0.10123,12.711771 0.29905,13.639271 0.56784,2.662259 3.35468,4.576459 5.72022,3.929069 1.57254,-0.43038 2.64272,-1.22586 3.29662,-2.450459 l 0.60598,-1.134858 V 81.173811 c 0,-16.328331 -0.035,-17.709059 -0.48649,-19.182291 -1.51283,-4.936627 -5.16088,-8.561728 -9.84325,-9.78133 -2.30646,-0.600755 -28.09863,-0.600755 -30.40509,0 -5.04687,1.314542 -8.98616,5.454173 -10.06329,10.57508 -0.31909,1.517074 -0.39012,4.867183 -0.39268,18.520833 -0.002,11.358888 0.09,17.003985 0.28904,17.721116 0.60776,2.189141 3.26284,3.853751 5.50171,3.449301 1.40294,-0.25344 2.844,-1.30984 3.52452,-2.583735 0.59751,-1.118512 0.60096,-1.190217 0.68476,-14.215729 0.0557,-8.665492 0.17851,-13.20516 0.36313,-13.427603 0.35241,-0.424641 1.33221,-0.435039 1.74869,-0.01855 0.24341,0.243411 0.3175,7.715961 0.3175,32.023077 0,34.2627 -0.0739,32.47453 1.41555,34.24084 1.55952,1.84937 4.63444,2.49093 6.93359,1.44662 z m 0.71932,-95.158165 c -4.42213,-1.191048 -8.4511,-4.528097 -10.49454,-8.692243 -3.11924,-6.356455 -1.84574,-13.594476 3.29383,-18.720558 4.11216,-4.101369 9.78772,-5.645929 15.43705,-4.201073 8.24015,2.107475 13.55666,10.393495 11.98602,18.680765 -1.20483,6.357153 -5.81592,11.331833 -11.99556,12.941425 -1.91709,0.499338 -6.35864,0.494848 -8.2268,-0.0083 z m 6.93883,-2.37381 c 6.32697,-1.334264 10.98021,-6.957381 10.98021,-13.268842 0,-6.250301 -4.2801,-11.901655 -10.17709,-13.437625 -8.40711,-2.189774 -16.66791,3.752683 -17.25206,12.41037 -0.45706,6.77406 4.1151,12.842302 10.7604,14.281365 2.24598,0.486376 3.43741,0.489461 5.68854,0.01474 z"
       id="path1287" />
  </g>
</svg>
