<?xml version="1.0" encoding="UTF-8" standalone="no"?>
<!-- Created with Inkscape (http://www.inkscape.org/) -->

<svg
   width="132.68434mm"
   height="132.68434mm"
   viewBox="0 0 132.68434 132.68434"
   version="1.1"
   id="svg2062"
   inkscape:version="1.1 (c68e22c387, 2021-05-23)"
   sodipodi:docname="plants.svg"
   xmlns:inkscape="http://www.inkscape.org/namespaces/inkscape"
   xmlns:sodipodi="http://sodipodi.sourceforge.net/DTD/sodipodi-0.dtd"
   xmlns="http://www.w3.org/2000/svg"
   xmlns:svg="http://www.w3.org/2000/svg">
  <sodipodi:namedview
     id="namedview2064"
     pagecolor="#505050"
     bordercolor="#eeeeee"
     borderopacity="1"
     inkscape:pageshadow="0"
     inkscape:pageopacity="0"
     inkscape:pagecheckerboard="0"
     inkscape:document-units="mm"
     showgrid="false"
     fit-margin-top="0"
     fit-margin-left="0"
     fit-margin-right="0"
     fit-margin-bottom="0"
     inkscape:zoom="0.49709596"
     inkscape:cx="-287.67082"
     inkscape:cy="296.72339"
     inkscape:window-width="1366"
     inkscape:window-height="715"
     inkscape:window-x="-8"
     inkscape:window-y="-8"
     inkscape:window-maximized="1"
     inkscape:current-layer="layer1" />
  <defs
     id="defs2059" />
  <g
     inkscape:label="Layer 1"
     inkscape:groupmode="layer"
     id="layer1"
     transform="translate(-181.07224,-70.490236)">
    <path
       style="fill:#ffffff;stroke-width:0.259184"
       d="m 242.35665,196.10723 c -1.03852,-1.03851 -1.09007,-1.45874 -1.27832,-10.41947 -0.40952,-19.49397 -3.92528,-37.35797 -10.08882,-51.26251 l -0.66458,-1.49924 -1.55418,0.78455 c -7.64123,3.85728 -18.92422,4.28486 -27.14762,1.02877 -9.60724,-3.80402 -15.88929,-13.88258 -18.72823,-30.04647 -1.45153,-8.264511 -2.34999,-24.185271 -1.48207,-26.262491 0.19438,-0.46521 0.68267,-1.06157 1.08509,-1.32525 0.6825,-0.44719 1.20301,-0.46868 7.74607,-0.31973 16.21264,0.36906 27.60829,2.60027 36.13768,7.07558 7.7381,4.060121 11.93299,9.036014 13.89494,16.481881 2.45747,9.32647 0.88676,20.24864 -3.89582,27.09018 l -1.20202,1.7195 0.44892,0.92374 c 3.59884,7.40531 6.81456,17.77365 8.6715,27.95925 0.39789,2.1825 0.7685,4.01324 0.82357,4.06831 0.0551,0.0551 0.52962,-1.34444 1.05453,-3.11002 1.93942,-6.52329 5.10151,-13.58899 8.60148,-19.22001 l 1.95705,-3.14866 -0.65484,-1.48073 c -2.88778,-6.52978 -3.48841,-15.47214 -1.53671,-22.87911 1.93465,-7.3423 6.09033,-12.332759 13.61162,-16.345881 8.58223,-4.579202 20.10529,-6.863014 36.42099,-7.218451 6.5366,-0.1424 7.06424,-0.120153 7.74607,0.3266 1.14,0.746953 1.43912,1.810098 1.43356,5.095231 -0.007,3.92274 -0.40609,10.865721 -0.8989,15.624141 -1.50418,14.52394 -5.50124,25.29073 -11.76906,31.70214 -1.95311,1.99785 -3.2779,2.96375 -5.85873,4.2716 -7.11603,3.60606 -17.37929,4.13642 -25.73925,1.33007 -2.68671,-0.9019 -6.24207,-2.77355 -7.69054,-4.04854 -0.65656,-0.57793 -1.23619,-1.00725 -1.28806,-0.95405 -0.0519,0.0532 -0.63513,1.01273 -1.29613,2.13227 -3.1382,5.31526 -5.88746,11.78109 -7.76812,18.26946 -2.34964,8.10633 -4.0347,20.03828 -4.03665,28.58353 -7.8e-4,3.4998 -0.15505,4.22908 -1.09282,5.16685 -0.61856,0.61856 -0.98262,0.76198 -1.93428,0.76198 -0.98059,0 -1.31214,-0.13983 -2.02732,-0.85502 z m 45.74562,-54.16341 c 5.8402,-1.53026 9.38274,-4.33123 12.59079,-9.95515 3.73402,-6.54597 6.16583,-17.23811 6.70919,-29.49887 0.0821,-1.85317 0.2155,-4.408717 0.29637,-5.679007 l 0.14706,-2.309615 -4.88242,0.163539 c -21.83934,0.731519 -36.27476,5.908773 -40.87289,14.659033 -2.0737,3.94625 -3.05118,9.71959 -2.51808,14.87268 0.1659,1.6037 0.40532,3.32403 0.53204,3.82296 0.12672,0.49893 0.35899,1.40142 0.51617,2.00554 l 0.28578,1.09839 3.42504,-3.45702 c 4.65083,-4.69428 8.77405,-7.90153 14.5253,-11.29854 3.52281,-2.08076 6.38694,-3.38102 7.4475,-3.38102 1.84578,0 3.31127,1.91306 2.82223,3.68419 -0.32798,1.18787 -0.57145,1.37302 -4.49843,3.42087 -5.30502,2.76647 -10.04877,6.10276 -14.26068,10.02957 -2.35321,2.19393 -6.10987,6.41394 -6.10987,6.86348 0,0.41735 1.91066,1.94222 3.62857,2.89593 1.75362,0.97352 4.89173,2.00573 7.64592,2.51494 3.23137,0.59743 9.41387,0.37517 12.57041,-0.4519 z m -66.54163,-11.96239 c 1.39196,-0.36541 3.29938,-1.01287 4.23872,-1.43879 l 1.7079,-0.77439 -0.71387,-1.23515 c -1.05469,-1.82484 -3.40349,-5.16557 -4.87741,-6.93718 -3.46577,-4.16579 -7.05132,-7.41165 -12.15212,-11.00086 -4.25576,-2.99459 -4.96739,-3.94863 -4.34716,-5.82795 0.39122,-1.1854 1.49001,-1.963 2.76742,-1.95846 0.83138,0.003 1.51266,0.36909 4.10693,2.20723 8.65245,6.13057 13.28633,10.73831 18.29776,18.19455 l 1.45082,2.1586 0.94981,-2.07785 c 3.2773,-7.16956 3.14836,-17.39764 -0.30224,-23.975407 -3.0984,-5.906395 -11.60305,-10.602276 -23.02086,-12.711064 -6.19514,-1.14421 -14.35232,-1.92935 -20.13943,-1.93845 l -2.54781,-0.004 0.14513,2.52704 c 0.0798,1.38987 0.21211,3.92663 0.29399,5.637242 0.88103,18.407789 5.68024,31.768939 13.16202,36.643509 2.01102,1.31023 5.2287,2.51407 8.04744,3.01079 3.34813,0.59002 9.72039,0.34396 12.93296,-0.4994 z"
       id="path878" />
  </g>
</svg>
