<?xml version="1.0" encoding="UTF-8" standalone="no"?>
<!-- Created with Inkscape (http://www.inkscape.org/) -->

<svg xmlns:dc="http://purl.org/dc/elements/1.1/" xmlns:cc="http://creativecommons.org/ns#" xmlns:rdf="http://www.w3.org/1999/02/22-rdf-syntax-ns#" xmlns:svg="http://www.w3.org/2000/svg" xmlns="http://www.w3.org/2000/svg" xmlns:xlink="http://www.w3.org/1999/xlink" xmlns:sodipodi="http://sodipodi.sourceforge.net/DTD/sodipodi-0.dtd" xmlns:inkscape="http://www.inkscape.org/namespaces/inkscape" width="496.077mm" height="498.71921mm" viewBox="0 0 1757.7531 1767.1153" id="svg4248" version="1.1" inkscape:version="0.91 r13725" sodipodi:docname="logo-gradient.svg">
  <defs id="defs4250">
    <linearGradient inkscape:collect="always" id="linearGradient4188">
      <stop style="stop-color:#ffb100;stop-opacity:1" offset="0" id="stop4190" />
      <stop style="stop-color:white;stop-opacity:0;" offset="1" id="stop4192" />
    </linearGradient>
    <inkscape:path-effect effect="skeletal" id="path-effect98" is_visible="true" lpeversion="1" pattern="m 821.65837,-175.12077 a 3.5907736,3.5907736 0 0 1 -3.59077,3.59078 a 3.5907736,3.5907736 0 0 1 -3.59077,-3.59078 a 3.5907736,3.5907736 0 0 1 3.59077,-3.59077 a 3.5907736,3.5907736 0 0 1 3.59077,3.59077 z" copytype="repeated_stretched" prop_scale="1" scale_y_rel="false" spacing="30" normal_offset="0" tang_offset="0" prop_units="false" vertical_pattern="false" hide_knot="false" fuse_tolerance="0" />
    <radialGradient inkscape:collect="always" xlink:href="#linearGradient4188" id="radialGradient4194" cx="63.064232" cy="519.24103" fx="63.064232" fy="519.24103" r="881.05505" gradientTransform="matrix(-0.80970014,0.94007564,-0.85180193,-0.73366972,392.42786,855.80907)" gradientUnits="userSpaceOnUse" />
  </defs>
  <sodipodi:namedview id="base" pagecolor="#ffffff" bordercolor="#666666" borderopacity="1.0" inkscape:pageopacity="0.0" inkscape:pageshadow="2" inkscape:zoom="0.25000001" inkscape:cx="980.39799" inkscape:cy="1077.7429" inkscape:document-units="px" inkscape:current-layer="g4933" showgrid="false" inkscape:window-width="1366" inkscape:window-height="747" inkscape:window-x="0" inkscape:window-y="21" inkscape:window-maximized="1" fit-margin-top="0" fit-margin-left="0" fit-margin-right="0" fit-margin-bottom="0" />
  <metadata id="metadata4253">
    <rdf:RDF>
      <cc:Work rdf:about="">
        <dc:format>image/svg+xml</dc:format>
        <dc:type rdf:resource="http://purl.org/dc/dcmitype/StillImage" />
        <dc:title />
      </cc:Work>
    </rdf:RDF>
  </metadata>
  <g inkscape:label="Layer 1" inkscape:groupmode="layer" id="layer1" transform="translate(958.16278,351.19555)">
    <g id="g950" transform="matrix(18.920431,0,0,18.920431,-17211.91,2979.8795)" style="fill:none;stroke:black;stroke-opacity:1" />
    <g id="g4837" style="stroke:black;fill:none;stroke-opacity:1">
      <g id="g4933">
        <rect style="color:black;clip-rule:nonzero;display:inline;overflow:visible;visibility:visible;opacity:1;isolation:auto;mix-blend-mode:normal;color-interpolation:sRGB;color-interpolation-filters:linearRGB;solid-color:black;solid-opacity:1;fill:url(#radialGradient4194);fill-opacity:1;fill-rule:nonzero;stroke:none;stroke-width:6;stroke-linecap:round;stroke-linejoin:miter;stroke-miterlimit:4;stroke-dasharray:none;stroke-dashoffset:0;stroke-opacity:1;color-rendering:auto;image-rendering:auto;shape-rendering:auto;text-rendering:auto;enable-background:accumulate" id="rect4142" width="1762.1101" height="1764.9385" x="-957.93915" y="-353.98346" ry="0" />
        <path style="color:black;font-style:normal;font-variant:normal;font-weight:normal;font-stretch:normal;font-size:medium;line-height:normal;font-family:sans-serif;text-indent:0;text-align:start;text-decoration:none;text-decoration-line:none;text-decoration-style:solid;text-decoration-color:black;letter-spacing:normal;word-spacing:normal;text-transform:none;direction:ltr;block-progression:tb;writing-mode:lr-tb;baseline-shift:baseline;text-anchor:start;white-space:normal;clip-rule:nonzero;display:inline;overflow:visible;visibility:visible;opacity:1;isolation:auto;mix-blend-mode:normal;color-interpolation:sRGB;color-interpolation-filters:linearRGB;solid-color:black;solid-opacity:1;fill:white;fill-opacity:1;fill-rule:nonzero;stroke:none;stroke-width:0.15855876;stroke-linecap:round;stroke-linejoin:miter;stroke-miterlimit:4;stroke-dasharray:none;stroke-dashoffset:0;stroke-opacity:1;color-rendering:auto;image-rendering:auto;shape-rendering:auto;text-rendering:auto;enable-background:accumulate" d="M 739.01172 5 C 735.03965 5.0582548 730.97186 5.4067 726.82812 6.0683594 C 682.72498 13.110929 657.87591 51.137601 666.9668 86.925781 C 676.06526 122.74348 713.29372 144.20475 747.65039 138.94336 C 781.90488 133.69729 810.99416 102.02989 808.81055 64.798828 C 806.83011 31.031092 777.40839 4.4368699 739.01172 5 z M 855.33008 192.95312 C 838.56637 192.86113 821.81001 193.36323 805.0918 194.45898 C 698.09506 201.47203 592.70391 232.75075 497.41211 287.76758 A 50.073789 50.073789 0 0 0 547.48438 374.5 C 711.18357 279.9881 909.38452 266.98215 1084.0195 339.31836 C 1258.6545 411.65457 1389.6319 561.01298 1438.5547 743.5957 A 50.065343 50.065343 0 1 0 1535.2637 717.69141 C 1478.3062 505.12282 1325.6556 331.03843 1122.3398 246.82227 C 1036.5661 211.29365 945.85413 193.44987 855.33008 192.95312 z M 1415.8516 232.24219 C 1396.2735 231.76173 1377.5666 239.72219 1365.0547 255.07422 C 1341.5044 283.97045 1346.5857 327.14962 1372.502 351.91211 C 1398.422 376.6782 1441.799 379.78378 1469.5977 354.90039 C 1497.3946 330.01851 1497.9824 284.4289 1466.0488 253.94922 C 1451.0783 239.66054 1433.1263 232.66612 1415.8516 232.24219 z M 385.23438 385.14062 A 50.065343 50.065343 0 0 0 385.18359 385.14258 A 50.065343 50.065343 0 0 0 350.7793 400.29297 C 195.16821 555.90405 120.72869 775.14553 149.45312 993.33008 C 178.17774 1211.5146 306.82812 1404.0151 497.41211 1514.0488 A 50.065343 50.065343 0 1 0 547.48438 1427.3535 C 383.78518 1332.8418 273.38356 1167.6545 248.71094 980.24805 C 224.03851 792.84175 287.92224 604.75745 421.58203 471.09766 A 50.065343 50.065343 0 0 0 385.23438 385.14062 z M 851.4043 386.46484 A 514.46094 514.46094 0 0 0 336.94336 900.92578 A 514.46094 514.46094 0 0 0 851.4043 1415.3867 A 514.46094 514.46094 0 0 0 1365.8652 900.92578 A 514.46094 514.46094 0 0 0 851.4043 386.46484 z M 141.44922 408.82812 C 119.00718 409.25188 96.112919 421.43027 81.582031 444.86523 C 58.308001 482.40091 70.370043 526.22516 103.3457 543.16992 C 136.30339 560.1056 177.31124 546.34614 196.16602 516.21289 C 215.0471 486.03746 209.43197 443.05959 179.45312 420.86914 C 168.21722 412.55219 154.91444 408.57387 141.44922 408.82812 z M 1508.584 850.16992 A 50.065343 50.065343 0 0 0 1459.2871 900.9082 C 1459.2871 1089.9318 1371.4138 1268.125 1221.4512 1383.1953 C 1071.4888 1498.2655 876.66476 1536.9932 694.08203 1488.0703 A 50.065343 50.065343 0 1 0 668.17578 1584.7793 C 880.74436 1641.7369 1107.7976 1596.5778 1282.3887 1462.6094 C 1456.9796 1328.6409 1559.3945 1120.9755 1559.3945 900.9082 A 50.065343 50.065343 0 0 0 1508.584 850.16992 z M 1688.7773 900.92188 C 1651.2559 900.92187 1621.3221 931.94997 1618.0996 966.43359 C 1614.8674 1001.0217 1638.4231 1037.0346 1674.6816 1044.168 C 1710.9129 1051.2959 1747.6457 1024.3845 1752.2852 979.74023 C 1756.935 934.99663 1726.3251 900.92188 1688.7773 900.92188 z M 68.820312 1122.9844 C 62.205689 1122.9615 55.503103 1123.9163 48.890625 1125.9766 C 13.595315 1136.9737 -5.6830312 1178.0237 11.074219 1218.9824 C 27.803289 1259.8714 70.333903 1275.6352 103.3457 1258.6719 C 136.38532 1241.6948 148.81965 1200.4244 135.38672 1167.9004 C 124.49705 1141.5346 97.483681 1123.0834 68.820312 1122.9844 z M 1309.2812 1521.7188 C 1295.0239 1521.9813 1280.8129 1526.2891 1268.8984 1534.5508 C 1239.6034 1554.8646 1227.8162 1596.5551 1246.3633 1628.6973 C 1264.9187 1660.8537 1309.3154 1670.7874 1345.6934 1645.7539 C 1382.0406 1620.7415 1388.6227 1575.6876 1365.0547 1546.7695 C 1351.055 1529.5918 1330.1189 1521.3351 1309.2812 1521.7188 z M 598.22656 1626.832 C 571.06698 1626.3862 543.71414 1640.9885 531.76367 1667.3867 C 516.48032 1701.1474 534.31445 1742.8254 576.05273 1757.4766 C 617.86802 1772.1548 657.86172 1750.7618 666.9668 1714.918 C 676.06412 1679.105 653.62952 1642.4733 620.65234 1630.8184 C 613.42058 1628.2625 605.83125 1626.9569 598.22656 1626.832 z " id="path1047-7-1" transform="translate(-958.16284,-351.19555)" />
      </g>
    </g>
  </g>
</svg>
