<?xml version="1.0" encoding="UTF-8" standalone="no"?>
<!-- Created with Inkscape (http://www.inkscape.org/) -->

<svg xmlns:dc="http://purl.org/dc/elements/1.1/" xmlns:cc="http://creativecommons.org/ns#" xmlns:rdf="http://www.w3.org/1999/02/22-rdf-syntax-ns#" xmlns:svg="http://www.w3.org/2000/svg" xmlns="http://www.w3.org/2000/svg" xmlns:sodipodi="http://sodipodi.sourceforge.net/DTD/sodipodi-0.dtd" xmlns:inkscape="http://www.inkscape.org/namespaces/inkscape" width="496.077mm" height="498.71921mm" viewBox="0 0 1757.7531 1767.1153" id="svg4248" version="1.1" inkscape:version="0.91 r13725" sodipodi:docname="logo-grey.svg">
  <defs id="defs4250">
    <inkscape:path-effect effect="skeletal" id="path-effect98" is_visible="true" lpeversion="1" pattern="m 821.65837,-175.12077 a 3.5907736,3.5907736 0 0 1 -3.59077,3.59078 a 3.5907736,3.5907736 0 0 1 -3.59077,-3.59078 a 3.5907736,3.5907736 0 0 1 3.59077,-3.59077 a 3.5907736,3.5907736 0 0 1 3.59077,3.59077 z" copytype="repeated_stretched" prop_scale="1" scale_y_rel="false" spacing="30" normal_offset="0" tang_offset="0" prop_units="false" vertical_pattern="false" hide_knot="false" fuse_tolerance="0" />
  </defs>
  <sodipodi:namedview id="base" pagecolor="#ffffff" bordercolor="#666666" borderopacity="1.0" inkscape:pageopacity="0.0" inkscape:pageshadow="2" inkscape:zoom="0.35" inkscape:cx="-612.5515" inkscape:cy="883.55758" inkscape:document-units="px" inkscape:current-layer="g4837" showgrid="false" inkscape:window-width="1366" inkscape:window-height="747" inkscape:window-x="0" inkscape:window-y="21" inkscape:window-maximized="1" fit-margin-top="0" fit-margin-left="0" fit-margin-right="0" fit-margin-bottom="0" />
  <metadata id="metadata4253">
    <rdf:RDF>
      <cc:Work rdf:about="">
        <dc:format>image/svg+xml</dc:format>
        <dc:type rdf:resource="http://purl.org/dc/dcmitype/StillImage" />
        <dc:title />
      </cc:Work>
    </rdf:RDF>
  </metadata>
  <g inkscape:label="Layer 1" inkscape:groupmode="layer" id="layer1" transform="translate(958.16278,351.19555)">
    <g id="g950" transform="matrix(18.920431,0,0,18.920431,-17211.91,2979.8795)" />
    <g id="g4837">
      <path style="color:black;font-style:normal;font-variant:normal;font-weight:normal;font-stretch:normal;font-size:medium;line-height:normal;font-family:sans-serif;text-indent:0;text-align:start;text-decoration:none;text-decoration-line:none;text-decoration-style:solid;text-decoration-color:black;letter-spacing:normal;word-spacing:normal;text-transform:none;direction:ltr;block-progression:tb;writing-mode:lr-tb;baseline-shift:baseline;text-anchor:start;white-space:normal;clip-rule:nonzero;display:inline;overflow:visible;visibility:visible;opacity:0.606;isolation:auto;mix-blend-mode:normal;color-interpolation:sRGB;color-interpolation-filters:linearRGB;solid-color:black;solid-opacity:1;fill:#b2b2b2;fill-opacity:1;fill-rule:nonzero;stroke:#ccc;stroke-width:0.05285292;stroke-linecap:round;stroke-linejoin:miter;stroke-miterlimit:4;stroke-dasharray:none;stroke-dashoffset:0;stroke-opacity:0.60784316;color-rendering:auto;image-rendering:auto;shape-rendering:auto;text-rendering:auto;enable-background:accumulate" d="m 901.60938,-165.7793 c -5.65509,0.37066 -11.22527,2.02384 -16.26172,4.93164 a 2.6465459,2.6465459 0 0 0 2.64648,4.58399 c 8.65198,-4.99523 19.12745,-5.68256 28.35742,-1.85938 c 9.22997,3.82318 16.15257,11.71716 18.73828,21.36719 a 2.6460995,2.6460995 0 1 0 5.11133,-1.36914 c -3.01037,-11.23487 -11.07839,-20.43565 -21.82422,-24.88672 c -5.37291,-2.22553 -11.11249,-3.13823 -16.76757,-2.76758 z" id="path1047-7-1" inkscape:connector-curvature="0" transform="matrix(18.920431,0,0,18.920431,-17211.91,2979.8795)" />
      <path style="color:black;font-style:normal;font-variant:normal;font-weight:normal;font-stretch:normal;font-size:medium;line-height:normal;font-family:sans-serif;text-indent:0;text-align:start;text-decoration:none;text-decoration-line:none;text-decoration-style:solid;text-decoration-color:black;letter-spacing:normal;word-spacing:normal;text-transform:none;direction:ltr;block-progression:tb;writing-mode:lr-tb;baseline-shift:baseline;text-anchor:start;white-space:normal;clip-rule:nonzero;display:inline;overflow:visible;visibility:visible;opacity:0.606;isolation:auto;mix-blend-mode:normal;color-interpolation:sRGB;color-interpolation-filters:linearRGB;solid-color:black;solid-opacity:1;fill:#b2b2b2;fill-opacity:1;fill-rule:nonzero;stroke:#ccc;stroke-width:0.05285292;stroke-linecap:round;stroke-linejoin:miter;stroke-miterlimit:4;stroke-dasharray:none;stroke-dashoffset:0;stroke-opacity:0.60784316;color-rendering:auto;image-rendering:auto;shape-rendering:auto;text-rendering:auto;enable-background:accumulate" d="m 879.41602,-155.70117 a 2.6460995,2.6460995 0 0 0 -1.81836,0.80078 c -8.2245,8.2245 -12.1588,19.81206 -10.64063,31.34375 c 1.51818,11.53169 8.31771,21.70588 18.39063,27.521484 a 2.6460995,2.6460995 0 1 0 2.64648,-4.582034 c -8.65198,-4.99522 -14.487,-13.72588 -15.79102,-23.63086 c -1.30401,-9.90497 2.07241,-19.84584 9.13672,-26.91015 a 2.6460995,2.6460995 0 0 0 -1.92382,-4.54297 z" id="path1047-8-1-7" inkscape:connector-curvature="0" transform="matrix(18.920431,0,0,18.920431,-17211.91,2979.8795)" />
      <path style="color:black;font-style:normal;font-variant:normal;font-weight:normal;font-stretch:normal;font-size:medium;line-height:normal;font-family:sans-serif;text-indent:0;text-align:start;text-decoration:none;text-decoration-line:none;text-decoration-style:solid;text-decoration-color:black;letter-spacing:normal;word-spacing:normal;text-transform:none;direction:ltr;block-progression:tb;writing-mode:lr-tb;baseline-shift:baseline;text-anchor:start;white-space:normal;clip-rule:nonzero;display:inline;overflow:visible;visibility:visible;opacity:0.606;isolation:auto;mix-blend-mode:normal;color-interpolation:sRGB;color-interpolation-filters:linearRGB;solid-color:black;solid-opacity:1;fill:#b2b2b2;fill-opacity:1;fill-rule:nonzero;stroke:#ccc;stroke-width:0.05285292;stroke-linecap:round;stroke-linejoin:miter;stroke-miterlimit:4;stroke-dasharray:none;stroke-dashoffset:0;stroke-opacity:0.60784316;color-rendering:auto;image-rendering:auto;shape-rendering:auto;text-rendering:auto;enable-background:accumulate" d="m 938.79102,-131.12305 a 2.6460995,2.6460995 0 0 0 -2.60547,2.68164 c 0,9.99045 -4.64436,19.40844 -12.57032,25.49024 c -7.92595,6.081796 -18.22301,8.128684 -27.87304,5.542967 a 2.6460995,2.6460995 0 1 0 -1.36914,5.111328 c 11.23487,3.010375 23.23524,0.623593 32.46289,-6.457031 c 9.22764,-7.080624 14.64062,-18.056304 14.64062,-29.687504 a 2.6460995,2.6460995 0 0 0 -2.68554,-2.68164 z" id="path1047-1-2-4" inkscape:connector-curvature="0" transform="matrix(18.920431,0,0,18.920431,-17211.91,2979.8795)" />
      <path style="fill:#b2b2b2;fill-opacity:1;stroke:#ccc;stroke-width:1;stroke-linecap:round;stroke-miterlimit:4;stroke-dasharray:none;stroke-opacity:0.60784316;opacity:0.606" d="m 716.51883,692.97287 c -36.25855,-7.13338 -59.81467,-43.14615 -56.5825,-77.73421 c 3.22253,-34.48362 33.15636,-65.51294 70.67784,-65.51294 c 37.54779,0 68.15896,34.07513 63.50908,78.81873 c -4.63948,44.64427 -41.37312,71.55631 -77.60442,64.42842 z M 288.20038,1277.5018 c -18.54713,-32.1422 -6.76008,-73.8333 22.53499,-94.1471 c 29.328,-20.3365 72.57707,-16.7122 96.15553,12.2188 c 23.56804,28.9181 16.98657,73.9717 -19.36071,98.9841 c -36.37794,25.0335 -80.77435,15.1006 -99.32981,-17.0558 z m -714.60046,38.6902 c 15.2966,-33.7897 55.8306,-48.2537 88.89008,-36.5698 c 32.97718,11.6549 55.41056,48.2869 46.31324,84.0999 c -9.10508,35.8438 -49.09738,57.2365 -90.91267,42.5583 c -41.73828,-14.6512 -59.574,-56.3277 -44.29065,-90.0884 z M -909.27294,774.78008 c 35.26655,-10.98823 73.09341,9.47517 86.49608,41.92541 c 13.43293,32.52403 0.999,73.79365 -32.04062,90.77077 c -33.0118,16.9633 -75.54209,1.19955 -92.27116,-39.68939 c -16.75725,-40.95876 2.52039,-82.00966 37.8157,-93.00679 z m 130.5629,-705.106941 c 29.97885,22.190449 35.59387,65.168591 16.71279,95.344021 c -18.85478,30.13325 -59.86254,43.8937 -92.82023,26.95802 c -32.97566,-16.94476 -45.03706,-60.7692 -21.76303,-98.30488 c 23.24942,-37.495943 67.90807,-46.175691 97.87047,-23.997161 z m 629.35786,-356.069079 c 2.18361,37.23106 -26.90599,68.89705 -61.16048,74.14312 c -34.35667,5.26139 -71.58564,-16.20006 -80.6841,-52.01776 c -9.09089,-35.78818 15.7594,-73.81408 59.86254,-80.85665 c 44.19983,-7.0577 79.79673,21.47034 81.98204,58.73129 z M 511.43479,3.7055423 C 483.63614,28.588936 440.2584,25.482769 414.33836,0.71668184 C 388.4221,-24.045811 383.34063,-67.225829 406.8909,-96.122057 c 23.55177,-28.897933 69.05824,-31.606393 100.99536,-1.123874 c 31.93353,30.479679 31.34548,76.069215 3.54853,100.9510949 z" id="path1047-8-5-2-6-8" inkscape:connector-curvature="0" />
      <circle style="fill:#b2b2b2;stroke:#ccc;stroke-width:1;stroke-linecap:round;stroke-miterlimit:4;stroke-dasharray:none;stroke-opacity:0.60784316;opacity:0.606;fill-opacity:1" id="path1047-8-5-3" cx="-106.75948" cy="549.73035" r="514.46094" />
    </g>
  </g>
</svg>
